<?xml version="1.0" encoding="utf-8"?>
<!-- Generator: Adobe Illustrator 22.0.0, SVG Export Plug-In . SVG Version: 6.00 Build 0)  -->
<svg version="1.1" id="Layer_1" xmlns="http://www.w3.org/2000/svg" xmlns:xlink="http://www.w3.org/1999/xlink" x="0px" y="0px"
	 viewBox="0 0 1386.3 485" style="enable-background:new 0 0 1386.3 485;" xml:space="preserve">
<style type="text/css">
	.st0{fill:#FFFFFF;}
	.st1{fill:#58595B;}
	.st2{fill:#ED1C24;}
	.st3{fill:url(#SVGID_1_);}
</style>
<g>
	<path class="st0" d="M542.2,374.4l-10.2,35.3h-6.3L516,381l-9.8,28.7h-6.4l-10-35.3h5.9l7.5,29.7l9.8-29.7h6.1l9.8,29.6l7.6-29.6
		H542.2z"/>
	<path class="st0" d="M596.2,374.4L586,409.8h-6.3L570,381l-9.8,28.7h-6.4l-10-35.3h5.9l7.5,29.7l9.8-29.7h6.1l9.8,29.6l7.6-29.6
		H596.2z"/>
	<path class="st0" d="M650.1,374.4L640,409.8h-6.3l-9.7-28.7l-9.8,28.7h-6.4l-10-35.3h5.9l7.5,29.7l9.8-29.7h6.1l9.8,29.6l7.6-29.6
		H650.1z"/>
	<path class="st0" d="M659.9,402.9v6.9h-7.1v-6.9H659.9z"/>
	<path class="st0" d="M680.3,403.5l10.9-29.1h6.3l-13.8,35.3h-6.9l-13.8-35.3h6.3L680.3,403.5z"/>
	<path class="st0" d="M703.3,361.5c0.7-0.7,1.7-1,2.9-1c1.2,0,2.2,0.3,2.9,1c0.7,0.7,1.1,1.5,1.1,2.6s-0.4,1.9-1.1,2.6
		c-0.7,0.7-1.7,1-2.9,1c-1.2,0-2.2-0.3-2.9-1c-0.7-0.7-1.1-1.5-1.1-2.6S702.6,362.2,703.3,361.5z M709.1,374.4v35.3h-5.9v-35.3
		H709.1z"/>
	<path class="st0" d="M750.7,393.4h-28.2c0.1,4,1.3,7.1,3.4,9.1c2.2,2,4.8,3,7.9,3c2.8,0,5.2-0.7,7.1-2.2c1.9-1.4,3.1-3.4,3.5-5.8
		h6.2c-0.4,2.4-1.4,4.6-2.9,6.6c-1.5,1.9-3.4,3.4-5.8,4.5s-5,1.6-8,1.6c-3.4,0-6.4-0.7-9-2.2c-2.6-1.5-4.7-3.5-6.1-6.3
		c-1.5-2.7-2.2-5.9-2.2-9.6c0-3.7,0.7-6.9,2.2-9.6c1.5-2.7,3.5-4.8,6.1-6.3c2.6-1.5,5.6-2.2,9-2.2c3.4,0,6.4,0.7,9,2.2
		c2.6,1.5,4.5,3.4,5.9,5.9c1.4,2.4,2,5.1,2,8.1C750.9,391.4,750.9,392.5,750.7,393.4z M743.7,384c-1-1.8-2.3-3.1-4.1-3.9
		c-1.7-0.9-3.6-1.3-5.6-1.3c-3.2,0-5.9,1-8.1,3c-2.2,2-3.4,4.9-3.5,8.8H745C745.2,387.9,744.7,385.7,743.7,384z"/>
	<path class="st0" d="M775.4,404.6v5.1h-4.4c-3.6,0-6.3-0.9-8.1-2.6c-1.8-1.7-2.7-4.6-2.7-8.6v-19h-5.3v-5.1h5.3v-8.8h5.9v8.8h9.1
		v5.1h-9.1v19.2c0,2.3,0.4,3.8,1.3,4.7s2.3,1.3,4.3,1.3H775.4z"/>
	<path class="st0" d="M811.1,377.8c2.5,2.6,3.8,6.4,3.8,11.4v20.5h-5.9v-20c0-3.5-0.9-6.2-2.7-8.1c-1.8-1.9-4.2-2.8-7.3-2.8
		c-3.2,0-5.8,1-7.7,3.1c-1.9,2.1-2.9,5.1-2.9,9.1v18.7h-5.9v-35.3h5.9v8.4c0.9-2.9,2.5-5.1,4.8-6.6s4.9-2.3,7.9-2.3
		C805.3,373.9,808.6,375.2,811.1,377.8z"/>
	<path class="st0" d="M847.1,376.6c2.4,1.7,4,4,5,6.9v-9h5.9v35.3h-5.9v-9c-0.9,2.9-2.6,5.2-5,6.9c-2.4,1.7-5.3,2.6-8.7,2.6
		c-3.1,0-5.9-0.7-8.4-2.2c-2.4-1.5-4.4-3.5-5.8-6.3c-1.4-2.7-2.1-5.9-2.1-9.6c0-3.7,0.7-6.9,2.1-9.6c1.4-2.7,3.3-4.8,5.8-6.3
		c2.4-1.5,5.2-2.2,8.4-2.2C841.8,374,844.7,374.9,847.1,376.6z M831.4,382.6c-2.2,2.3-3.2,5.5-3.2,9.5c0,4,1.1,7.2,3.2,9.5
		c2.2,2.3,5,3.4,8.6,3.4c2.3,0,4.4-0.5,6.2-1.6c1.8-1.1,3.2-2.6,4.3-4.5c1-2,1.5-4.2,1.5-6.8c0-2.6-0.5-4.8-1.5-6.8
		c-1-2-2.5-3.5-4.3-4.5c-1.8-1.1-3.9-1.6-6.2-1.6C836.5,379.2,833.6,380.4,831.4,382.6z"/>
	<path class="st0" d="M920.6,377.8c2.5,2.6,3.8,6.4,3.8,11.4v20.5h-5.9v-20c0-3.5-0.8-6.1-2.5-8c-1.7-1.8-4-2.8-7-2.8
		c-3.1,0-5.6,1-7.4,3.1c-1.9,2-2.8,5-2.8,9v18.7h-5.9v-20c0-3.5-0.9-6.1-2.6-8c-1.7-1.8-4-2.8-6.9-2.8c-3.1,0-5.6,1-7.5,3.1
		c-1.9,2-2.8,5-2.8,9v18.7h-5.9v-35.3h5.9v8c0.9-2.8,2.4-4.9,4.6-6.4c2.2-1.5,4.7-2.2,7.6-2.2c3,0,5.6,0.8,7.8,2.3
		c2.2,1.5,3.8,3.8,4.7,6.7c1-2.9,2.6-5.1,5-6.7c2.3-1.6,4.9-2.3,7.8-2.3C914.8,373.9,918.1,375.2,920.6,377.8z"/>
	<path class="st0" d="M953.5,383.7v5h-25.7v-5H953.5z"/>
	<path class="st0" d="M978.7,403.5l10.9-29.1h6.3l-13.8,35.3h-6.9l-13.8-35.3h6.3L978.7,403.5z"/>
	<path class="st0" d="M1001.7,361.5c0.7-0.7,1.7-1,2.9-1c1.2,0,2.2,0.3,2.9,1c0.7,0.7,1.1,1.5,1.1,2.6s-0.4,1.9-1.1,2.6
		c-0.7,0.7-1.7,1-2.9,1c-1.2,0-2.2-0.3-2.9-1c-0.7-0.7-1.1-1.5-1.1-2.6S1001,362.2,1001.7,361.5z M1007.5,374.4v35.3h-5.9v-35.3
		H1007.5z"/>
	<path class="st0" d="M1037.6,377.1c2.4,2.1,3.9,4.9,4.4,8.4h-5.6c-0.3-2.1-1.1-3.8-2.6-5.2c-1.5-1.4-3.5-2-5.9-2
		c-2.1,0-3.7,0.5-4.9,1.5c-1.2,1-1.8,2.4-1.8,4.1c0,1.3,0.4,2.3,1.2,3.1c0.8,0.8,1.8,1.4,3,1.8c1.2,0.4,2.8,0.8,4.9,1.3
		c2.6,0.6,4.7,1.2,6.3,1.8c1.6,0.6,3,1.6,4.1,3c1.1,1.4,1.7,3.2,1.7,5.5c0,2.9-1.1,5.2-3.2,7c-2.2,1.8-5,2.7-8.6,2.7
		c-4.2,0-7.6-1-10.3-3c-2.7-2-4.2-4.8-4.7-8.4h5.7c0.2,2.1,1.1,3.9,2.8,5.2c1.7,1.3,3.8,2,6.5,2c2,0,3.6-0.5,4.7-1.5
		c1.1-1,1.7-2.4,1.7-4.1c0-1.4-0.4-2.5-1.2-3.3c-0.8-0.8-1.8-1.4-3-1.9c-1.2-0.4-2.9-0.9-5-1.4c-2.6-0.6-4.7-1.2-6.3-1.8
		c-1.6-0.6-2.9-1.6-4-2.9c-1.1-1.3-1.6-3.1-1.6-5.3c0-3,1.1-5.3,3.3-7.2c2.2-1.8,5.2-2.7,8.9-2.7C1032,374,1035.2,375,1037.6,377.1z
		"/>
	<path class="st0" d="M1073.3,376.6c2.4,1.7,4,4,5,6.9v-9h5.9v35.3h-5.9v-9c-0.9,2.9-2.6,5.2-5,6.9c-2.4,1.7-5.3,2.6-8.7,2.6
		c-3.1,0-5.9-0.7-8.4-2.2c-2.4-1.5-4.4-3.5-5.8-6.3c-1.4-2.7-2.1-5.9-2.1-9.6c0-3.7,0.7-6.9,2.1-9.6c1.4-2.7,3.3-4.8,5.8-6.3
		c2.4-1.5,5.2-2.2,8.4-2.2C1068.1,374,1071,374.9,1073.3,376.6z M1057.6,382.6c-2.2,2.3-3.2,5.5-3.2,9.5c0,4,1.1,7.2,3.2,9.5
		c2.2,2.3,5,3.4,8.6,3.4c2.3,0,4.4-0.5,6.2-1.6c1.8-1.1,3.2-2.6,4.3-4.5c1-2,1.5-4.2,1.5-6.8c0-2.6-0.5-4.8-1.5-6.8
		c-1-2-2.5-3.5-4.3-4.5c-1.8-1.1-3.9-1.6-6.2-1.6C1062.7,379.2,1059.8,380.4,1057.6,382.6z"/>
	<path class="st0" d="M1097.8,402.9v6.9h-7.1v-6.9H1097.8z"/>
	<path class="st0" d="M1129.6,376.2c2.7,1.5,4.8,3.6,6.3,6.3c1.5,2.7,2.3,6,2.3,9.6c0,3.7-0.8,6.9-2.3,9.6c-1.5,2.7-3.6,4.8-6.3,6.3
		c-2.7,1.5-5.7,2.2-9.1,2.2c-3.4,0-6.4-0.7-9.1-2.2c-2.7-1.5-4.8-3.5-6.3-6.3c-1.5-2.7-2.3-5.9-2.3-9.6c0-3.7,0.8-6.9,2.3-9.6
		s3.7-4.8,6.3-6.3c2.7-1.5,5.7-2.2,9.1-2.2C1123.9,374,1126.9,374.7,1129.6,376.2z M1114.7,380.6c-1.8,0.9-3.2,2.4-4.3,4.3
		c-1.1,2-1.6,4.4-1.6,7.2c0,2.8,0.5,5.2,1.6,7.2c1.1,2,2.5,3.4,4.3,4.3c1.8,0.9,3.7,1.4,5.8,1.4c2.1,0,4-0.5,5.8-1.4
		s3.2-2.4,4.3-4.3c1.1-2,1.6-4.3,1.6-7.2c0-2.9-0.5-5.3-1.6-7.2c-1.1-2-2.5-3.4-4.3-4.3c-1.8-0.9-3.7-1.4-5.8-1.4
		C1118.4,379.1,1116.5,379.6,1114.7,380.6z"/>
	<path class="st0" d="M1156.8,375.9c2.2-1.4,4.9-2,8-2v6.4h-1.8c-3.3,0-6,0.8-8.1,2.5c-2.1,1.7-3.2,4.5-3.2,8.4v18.6h-5.9v-35.3h5.9
		v7.1C1152.8,379.1,1154.5,377.2,1156.8,375.9z"/>
	<path class="st0" d="M1193.7,376.6c2.4,1.7,4,4,5,6.9v-9h5.9v35.9c0,3.3-0.7,6.2-2.1,8.7c-1.4,2.5-3.3,4.5-5.8,5.9
		c-2.5,1.4-5.4,2.1-8.7,2.1c-4.8,0-8.6-1.1-11.6-3.4c-3-2.3-4.9-5.4-5.7-9.3h5.8c0.7,2.4,2,4.2,3.9,5.6c1.9,1.4,4.4,2,7.4,2
		c3.2,0,5.8-1,7.9-3.1c2.1-2,3.1-4.9,3.1-8.5v-9.6c-0.9,2.9-2.6,5.2-5,6.9c-2.4,1.7-5.3,2.6-8.7,2.6c-3.1,0-5.9-0.7-8.4-2.2
		c-2.4-1.5-4.4-3.5-5.8-6.3c-1.4-2.7-2.1-5.9-2.1-9.6c0-3.7,0.7-6.9,2.1-9.6c1.4-2.7,3.3-4.8,5.8-6.3c2.4-1.5,5.2-2.2,8.4-2.2
		C1188.4,374,1191.3,374.9,1193.7,376.6z M1178,382.6c-2.2,2.3-3.2,5.5-3.2,9.5c0,4,1.1,7.2,3.2,9.5c2.2,2.3,5,3.4,8.6,3.4
		c2.3,0,4.4-0.5,6.2-1.6c1.8-1.1,3.2-2.6,4.3-4.5c1-2,1.5-4.2,1.5-6.8c0-2.6-0.5-4.8-1.5-6.8c-1-2-2.5-3.5-4.3-4.5
		c-1.8-1.1-3.9-1.6-6.2-1.6C1183.1,379.2,1180.2,380.4,1178,382.6z"/>
	<path class="st0" d="M1218.2,402.9v6.9h-7.1v-6.9H1218.2z"/>
	<path class="st0" d="M1238.6,403.5l10.9-29.1h6.3l-13.8,35.3h-6.9l-13.8-35.3h6.3L1238.6,403.5z"/>
	<path class="st0" d="M1290.1,377.8c2.5,2.6,3.8,6.4,3.8,11.4v20.5h-5.9v-20c0-3.5-0.9-6.2-2.7-8.1c-1.8-1.9-4.2-2.8-7.3-2.8
		c-3.2,0-5.8,1-7.7,3.1c-1.9,2.1-2.9,5.1-2.9,9.1v18.7h-5.9v-35.3h5.9v8.4c0.9-2.9,2.5-5.1,4.8-6.6c2.3-1.5,4.9-2.3,7.9-2.3
		C1284.2,373.9,1287.5,375.2,1290.1,377.8z"/>
</g>
<g>
	<path class="st0" d="M263.5,318.7h-27.2l-48.8-114.8h31.2l31.2,76.1l31.4-76.1h31.2L263.5,318.7z"/>
	<path class="st0" d="M354.5,207.3c0,8.7-6.7,15.2-15.9,15.2c-9.3,0-15.8-6.5-15.8-15.2c0-8.4,6.5-15.6,15.8-15.6
		C347.8,191.7,354.5,198.9,354.5,207.3z M324.9,318.7v-86h27.4v86H324.9z"/>
	<path class="st0" d="M457.8,282.7h-63.1c2.2,10.3,9.3,16.6,18.5,16.6c6.3,0,13.7-1.5,18.3-9.9l24.3,5c-7.4,18.2-23,26.9-42.7,26.9
		c-24.8,0-45.4-18.3-45.4-45.6c0-27.1,20.6-45.6,45.6-45.6c24.3,0,43.9,17.5,44.4,45.6V282.7z M395.3,265.9h35.5
		c-2.6-9.3-9.4-13.5-17.3-13.5C405.7,252.4,397.9,257.2,395.3,265.9z"/>
	<path class="st0" d="M535.8,314.9c-6.7,3.6-13.7,6.3-23.5,6.3c-21.4,0-34.3-11.7-34.3-34.3v-32.6h-15.6v-21.8h15.6v-28.8h27.4v28.8
		h25.4v21.8h-25.4v29.8c0,8.9,4.3,12.5,11.5,12.5c3.8,0,8.9-1.4,12.5-3.4L535.8,314.9z"/>
	<path class="st0" d="M633.5,265.9v52.8h-27.2v-46.9c0-10.1-6-17-14.7-17c-10.8,0-17.8,7.4-17.8,24v39.9h-27.4v-86h27.4v8.2
		c6.5-6.9,15.6-10.8,26.4-10.8C620.1,230.1,633.5,244.3,633.5,265.9z"/>
	<path class="st0" d="M730.3,264.2v54.5h-26.4v-6.3c-6,5.1-14.2,8.9-25.7,8.9c-19.2,0-32-11.1-32-28.1c0-16.8,12.9-27.8,35.8-27.8
		h21.9v-1.7c0-7.2-5-12-12.2-12c-8.2,0-13,3.3-14.4,10.8l-25.9-5.3c3.8-16.6,18.8-27.1,39.4-27.1C715,230.1,730.3,242.3,730.3,264.2
		z M703.9,284.8v-1.9h-18.8c-6.9,0-11.1,3.6-11.1,8.9c0,5.5,4.8,8.9,12,8.9C695.3,300.7,703.9,294.4,703.9,284.8z"/>
	<path class="st0" d="M891.7,264.9v53.8h-27.2v-48c0-9.8-6.3-15.9-14.4-15.9c-10.1,0-16.8,7.4-16.8,21.8v42.1h-27.4v-48
		c0-9.8-6.3-15.9-14.6-15.9c-9.9,0-16.4,7.4-16.4,21.8v42.1h-27.4v-86h27.4v7.9c5.8-6.5,14.2-10.4,25.4-10.4
		c12,0,22.3,5.1,28.1,14.6c6.9-8.9,17.1-14.6,30.5-14.6C877.1,230.1,891.7,244,891.7,264.9z"/>
	<path class="st0" d="M1017.5,318.7h-27.2l-48.8-114.8h31.2l31.2,76.1l31.4-76.1h31.2L1017.5,318.7z"/>
	<path class="st0" d="M1108.5,207.3c0,8.7-6.7,15.2-15.9,15.2c-9.3,0-15.8-6.5-15.8-15.2c0-8.4,6.5-15.6,15.8-15.6
		C1101.8,191.7,1108.5,198.9,1108.5,207.3z M1078.8,318.7v-86h27.4v86H1078.8z"/>
	<path class="st0" d="M1148.4,290.8c1.2,7.4,7.9,10.1,15.2,10.1c7.2,0,11.1-3.1,11.1-6.9c0-2.9-2.2-5.1-8.6-6.3l-17.5-3.4
		c-15.9-2.9-25-11.5-25-25c0-17.7,15.3-29.1,37-29.1c21.4,0,35.6,9.8,39.1,24.7l-25,5c-0.9-5.3-6-10.1-14.4-10.1
		c-7.4,0-9.8,3.6-9.8,6.7c0,2.4,1,4.8,6.5,6l20.2,4.1c16.3,3.4,23.8,13.2,23.8,25.9c0,19-16.4,29-39.1,29c-20.2,0-37.5-7.4-40.4-25
		L1148.4,290.8z"/>
	<path class="st0" d="M1293.9,264.2v54.5h-26.4v-6.3c-6,5.1-14.2,8.9-25.7,8.9c-19.2,0-32-11.1-32-28.1c0-16.8,12.9-27.8,35.8-27.8
		h21.9v-1.7c0-7.2-5-12-12.2-12c-8.2,0-13,3.3-14.4,10.8l-25.9-5.3c3.8-16.6,18.8-27.1,39.4-27.1
		C1278.6,230.1,1293.9,242.3,1293.9,264.2z M1267.5,284.8v-1.9h-18.8c-6.9,0-11.1,3.6-11.1,8.9c0,5.5,4.8,8.9,12,8.9
		C1258.9,300.7,1267.5,294.4,1267.5,284.8z"/>
</g>
<path class="st0" d="M468.1,400c0,0-281.4,29.8-312.2-132.5C138.1,174,266.5,101.7,389.5,96.6c-19.5,5.2-56.3,12.8-56.3,14.9
	c0,1.4,61.5-1.7,61.5-1.7s-17.8,18.4-17.8,21.3c0,5.5,51.7-23,51.7-23s86.8-0.6,88.5-16.7s-52.3-9.2-52.3-9.2s1.9-5.2,12.1-9.8
	c16.2-7.3-48.3,4.6-48.3,4.6s-76.1-47.6-80.4-40.4c-3,4.9,35.6,47.3,35.6,47.3l-60.9,13.2c0,0-41.7-20.2-42-14.4
	c-0.1,2.4,21.8,19,21.8,19s-5.6,3.4-5.2,5.2c0.3,1.3,5.2,1.7,5.2,1.7S115.9,152,131.4,270.7C146.8,388.9,323.2,431.7,468.1,400z"/>
</svg>
