<?xml version="1.0" encoding="utf-8"?>
<!-- Generator: Adobe Illustrator 23.0.0, SVG Export Plug-In . SVG Version: 6.00 Build 0)  -->
<svg version="1.1" id="Layer_1" xmlns="http://www.w3.org/2000/svg" xmlns:xlink="http://www.w3.org/1999/xlink" x="0px" y="0px"
	 viewBox="0 0 1313.27 270.34" style="enable-background:new 0 0 1313.27 270.34;" xml:space="preserve">
<style type="text/css">
	.st0{fill:#CB2026;}
	.st1{fill:#666766;}
	.st2{clip-path:url(#SVGID_2_);fill:#CB2026;}
	.st3{fill:#ED2024;}
</style>
<polyline class="st0" points="62.73,135.01 89.14,135.01 146.21,45.28 204.31,135.01 230.73,135.01 146.28,4.92 "/>
<polyline class="st1" points="4.16,44.17 48.99,44.17 145.85,196.46 244.47,44.17 289.3,44.17 145.96,264.97 "/>
<g>
	<defs>
		<polyline id="SVGID_1_" points="70.98,148.27 46.66,167.07 65.87,184.34 196.7,192.8 239.13,176.23 220.9,149.53 220.9,149.53 
			225.77,142.03 225.77,142.03 265.21,149.42 287.85,166.96 286.48,191.66 236.62,212.93 161.25,221.05 98.47,217.05 54.89,210.87 
			7.09,197.26 0,171.19 21.42,147.21 66.56,141.39 		"/>
	</defs>
	<clipPath id="SVGID_2_">
		<use xlink:href="#SVGID_1_"  style="overflow:visible;"/>
	</clipPath>
	<path class="st2" d="M285.95,176.23c0,23.07-63.29,41.77-141.35,41.77S3.24,199.3,3.24,176.23s63.29-41.77,141.35-41.77
		S285.95,153.16,285.95,176.23z M144,139.1c-56,0-101.4,13.42-101.4,29.97s45.4,29.97,101.4,29.97s101.4-13.42,101.4-29.97
		S200,139.1,144,139.1z"/>
</g>
<rect x="136.43" y="110.87" class="st3" width="14.99" height="14.99"/>
<g>
	<path class="st1" d="M870.93,40.66l49.38,138.72l50.07-138.72h22.74l-59.48,161.91h-26.41L847.96,40.66H870.93z"/>
	<path class="st1" d="M1014.47,30.21c2.6-2.37,6.05-3.56,10.34-3.56c4.29,0,7.73,1.19,10.33,3.56c2.6,2.38,3.9,5.48,3.9,9.3
		c0,3.83-1.3,6.93-3.9,9.3c-2.61,2.38-6.05,3.56-10.33,3.56c-4.29,0-7.73-1.18-10.34-3.56c-2.61-2.37-3.9-5.47-3.9-9.3
		C1010.56,35.69,1011.86,32.59,1014.47,30.21z M1035.14,76.49v126.09h-20.9V76.49H1035.14z"/>
	<path class="st1" d="M1142.5,86.02c8.65,7.43,13.89,17.42,15.73,29.97h-19.98c-0.92-7.5-4.02-13.67-9.3-18.49
		c-5.28-4.82-12.37-7.23-21.24-7.23c-7.5,0-13.36,1.8-17.57,5.4c-4.21,3.6-6.32,8.46-6.32,14.58c0,4.59,1.41,8.31,4.25,11.14
		c2.83,2.83,6.35,4.98,10.56,6.43c4.21,1.46,9.99,3.03,17.34,4.71c9.34,2.15,16.88,4.33,22.62,6.55c5.74,2.22,10.64,5.78,14.7,10.68
		c4.06,4.9,6.09,11.48,6.09,19.75c0,10.26-3.87,18.6-11.6,25.03c-7.73,6.43-18.03,9.65-30.89,9.65c-15.01,0-27.25-3.6-36.75-10.79
		c-9.5-7.2-15.08-17.23-16.77-30.09h20.21c0.76,7.66,4.09,13.86,9.99,18.6c5.89,4.75,13.67,7.12,23.31,7.12
		c7.2,0,12.82-1.84,16.88-5.51c4.06-3.67,6.09-8.5,6.09-14.47c0-4.9-1.46-8.8-4.36-11.71c-2.91-2.91-6.51-5.13-10.79-6.66
		c-4.29-1.53-10.18-3.14-17.68-4.82c-9.34-2.14-16.8-4.28-22.39-6.43c-5.59-2.14-10.33-5.55-14.24-10.22
		c-3.9-4.67-5.86-10.98-5.86-18.95c0-10.56,3.9-19.1,11.71-25.61c7.81-6.51,18.45-9.76,31.92-9.76
		C1122.41,74.88,1133.85,78.59,1142.5,86.02z"/>
	<path class="st1" d="M1270.2,84.07c8.5,6.13,14.43,14.32,17.8,24.57V76.49h20.9v126.09H1288v-32.15
		c-3.37,10.26-9.3,18.45-17.8,24.57c-8.5,6.13-18.87,9.19-31.12,9.19c-11.18,0-21.13-2.6-29.86-7.81
		c-8.73-5.2-15.58-12.67-20.56-22.39c-4.98-9.72-7.46-21.17-7.46-34.33c0-13.17,2.49-24.65,7.46-34.45
		c4.97-9.8,11.83-17.3,20.56-22.51c8.73-5.2,18.68-7.81,29.86-7.81C1251.33,74.88,1261.7,77.95,1270.2,84.07z M1214.16,105.77
		c-7.73,8.19-11.6,19.49-11.6,33.88c0,14.39,3.86,25.69,11.6,33.88c7.73,8.19,18.03,12.29,30.89,12.29c8.27,0,15.65-1.91,22.16-5.74
		c6.51-3.83,11.6-9.22,15.27-16.19c3.67-6.97,5.51-15.04,5.51-24.23s-1.84-17.3-5.51-24.34c-3.67-7.04-8.77-12.44-15.27-16.19
		c-6.51-3.75-13.89-5.63-22.16-5.63C1232.19,93.48,1221.89,97.58,1214.16,105.77z"/>
</g>
<g>
	<path class="st1" d="M349.59,176.89L342,203.24h-4.7l-7.25-21.46l-7.3,21.46H318l-7.49-26.35h4.42l5.62,22.18l7.3-22.18h4.56
		l7.34,22.13l5.66-22.13H349.59z"/>
	<path class="st1" d="M389.86,176.89l-7.58,26.35h-4.7l-7.25-21.46l-7.3,21.46h-4.75l-7.49-26.35h4.42l5.62,22.18l7.3-22.18h4.56
		l7.34,22.13l5.66-22.13H389.86z"/>
	<path class="st1" d="M430.13,176.89l-7.58,26.35h-4.7l-7.25-21.46l-7.3,21.46h-4.75l-7.49-26.35h4.42l5.62,22.18l7.3-22.18h4.56
		l7.34,22.13l5.66-22.13H430.13z"/>
	<path class="st1" d="M437.43,198.1v5.14h-5.28v-5.14H437.43z"/>
	<path class="st1" d="M452.64,198.58l8.16-21.7h4.7l-10.32,26.35H450l-10.32-26.35h4.7L452.64,198.58z"/>
	<path class="st1" d="M469.83,167.22c0.54-0.5,1.26-0.74,2.16-0.74c0.9,0,1.62,0.25,2.16,0.74c0.54,0.5,0.82,1.14,0.82,1.94
		c0,0.8-0.27,1.45-0.82,1.94c-0.54,0.5-1.26,0.74-2.16,0.74c-0.9,0-1.62-0.25-2.16-0.74c-0.54-0.5-0.82-1.14-0.82-1.94
		C469.01,168.36,469.28,167.71,469.83,167.22z M474.15,176.89v26.35h-4.37v-26.35H474.15z"/>
	<path class="st1" d="M505.2,191h-21.07c0.1,3.01,0.95,5.26,2.57,6.77c1.62,1.5,3.59,2.26,5.93,2.26c2.11,0,3.88-0.54,5.3-1.61
		c1.42-1.07,2.3-2.5,2.62-4.3h4.66c-0.32,1.82-1.03,3.46-2.14,4.9c-1.1,1.44-2.54,2.56-4.3,3.36c-1.76,0.8-3.74,1.2-5.95,1.2
		c-2.53,0-4.77-0.54-6.72-1.63c-1.95-1.09-3.48-2.65-4.58-4.68s-1.66-4.42-1.66-7.18s0.55-5.15,1.66-7.2s2.63-3.62,4.58-4.7
		c1.95-1.09,4.19-1.63,6.72-1.63c2.56,0,4.79,0.54,6.7,1.63s3.36,2.54,4.37,4.37c1.01,1.82,1.51,3.84,1.51,6.05
		C505.39,189.53,505.33,190.33,505.2,191z M500.02,183.99c-0.74-1.31-1.74-2.29-3.02-2.93c-1.28-0.64-2.67-0.96-4.18-0.96
		c-2.4,0-4.42,0.74-6.05,2.23c-1.63,1.49-2.51,3.67-2.64,6.55h16.85C501.07,186.94,500.75,185.3,500.02,183.99z"/>
	<path class="st1" d="M523.68,199.4v3.84h-3.26c-2.69,0-4.7-0.64-6.02-1.92c-1.33-1.28-1.99-3.42-1.99-6.43v-14.21h-3.94v-3.79h3.94
		v-6.58h4.42v6.58h6.82v3.79h-6.82v14.3c0,1.7,0.31,2.86,0.94,3.48s1.7,0.94,3.24,0.94H523.68z"/>
	<path class="st1" d="M550.32,179.41c1.89,1.97,2.83,4.81,2.83,8.52v15.31h-4.37v-14.93c0-2.62-0.67-4.64-2.02-6.05
		c-1.34-1.41-3.17-2.11-5.47-2.11c-2.4,0-4.32,0.78-5.76,2.33c-1.44,1.55-2.16,3.82-2.16,6.79v13.97h-4.37v-26.35h4.37v6.24
		c0.67-2.14,1.86-3.79,3.58-4.94c1.71-1.15,3.69-1.73,5.93-1.73C545.95,176.46,548.43,177.44,550.32,179.41z"/>
	<path class="st1" d="M577.18,178.47c1.78,1.28,3.02,2.99,3.72,5.14v-6.72h4.37v26.35h-4.37v-6.72c-0.7,2.14-1.94,3.86-3.72,5.14
		c-1.78,1.28-3.94,1.92-6.5,1.92c-2.34,0-4.42-0.54-6.24-1.63c-1.82-1.09-3.26-2.65-4.3-4.68s-1.56-4.42-1.56-7.18
		s0.52-5.15,1.56-7.2s2.47-3.62,4.3-4.7c1.82-1.09,3.9-1.63,6.24-1.63C573.23,176.55,575.4,177.19,577.18,178.47z M565.46,183.01
		c-1.62,1.71-2.42,4.07-2.42,7.08s0.81,5.37,2.42,7.08s3.77,2.57,6.46,2.57c1.73,0,3.27-0.4,4.63-1.2c1.36-0.8,2.42-1.93,3.19-3.38
		c0.77-1.46,1.15-3.14,1.15-5.06s-0.38-3.62-1.15-5.09c-0.77-1.47-1.83-2.6-3.19-3.38c-1.36-0.78-2.9-1.18-4.63-1.18
		C569.23,180.44,567.08,181.3,565.46,183.01z"/>
	<path class="st1" d="M632.04,179.41c1.87,1.97,2.81,4.81,2.81,8.52v15.31h-4.37v-14.93c0-2.59-0.63-4.58-1.9-5.95
		c-1.26-1.38-3-2.06-5.21-2.06c-2.3,0-4.15,0.76-5.54,2.28c-1.39,1.52-2.09,3.75-2.09,6.7v13.97h-4.37v-14.93
		c0-2.59-0.64-4.58-1.92-5.95c-1.28-1.38-3.01-2.06-5.18-2.06c-2.34,0-4.2,0.76-5.59,2.28c-1.39,1.52-2.09,3.75-2.09,6.7v13.97
		h-4.37v-26.35h4.37v6c0.64-2.08,1.78-3.67,3.43-4.78c1.65-1.1,3.54-1.66,5.69-1.66c2.24,0,4.18,0.57,5.83,1.7
		c1.65,1.14,2.82,2.81,3.53,5.02c0.74-2.14,1.97-3.8,3.7-4.97c1.73-1.17,3.68-1.75,5.86-1.75
		C627.7,176.46,630.17,177.44,632.04,179.41z"/>
	<path class="st1" d="M665.66,191h-21.07c0.1,3.01,0.95,5.26,2.57,6.77c1.62,1.5,3.59,2.26,5.93,2.26c2.11,0,3.88-0.54,5.3-1.61
		c1.42-1.07,2.3-2.5,2.62-4.3h4.66c-0.32,1.82-1.03,3.46-2.14,4.9c-1.1,1.44-2.54,2.56-4.3,3.36c-1.76,0.8-3.74,1.2-5.95,1.2
		c-2.53,0-4.77-0.54-6.72-1.63c-1.95-1.09-3.48-2.65-4.58-4.68c-1.1-2.03-1.66-4.42-1.66-7.18s0.55-5.15,1.66-7.2
		c1.1-2.05,2.63-3.62,4.58-4.7c1.95-1.09,4.19-1.63,6.72-1.63c2.56,0,4.79,0.54,6.7,1.63c1.9,1.09,3.36,2.54,4.37,4.37
		c1.01,1.82,1.51,3.84,1.51,6.05C665.86,189.53,665.79,190.33,665.66,191z M660.48,183.99c-0.74-1.31-1.75-2.29-3.02-2.93
		c-1.28-0.64-2.67-0.96-4.18-0.96c-2.4,0-4.42,0.74-6.05,2.23c-1.63,1.49-2.51,3.67-2.64,6.55h16.85
		C661.54,186.94,661.22,185.3,660.48,183.99z"/>
	<path class="st1" d="M681.79,198.58l8.16-21.7h4.7l-10.32,26.35h-5.18l-10.32-26.35h4.7L681.79,198.58z"/>
	<path class="st1" d="M698.98,167.22c0.54-0.5,1.26-0.74,2.16-0.74c0.9,0,1.62,0.25,2.16,0.74c0.54,0.5,0.82,1.14,0.82,1.94
		c0,0.8-0.27,1.45-0.82,1.94c-0.54,0.5-1.26,0.74-2.16,0.74c-0.9,0-1.62-0.25-2.16-0.74c-0.54-0.5-0.82-1.14-0.82-1.94
		C698.16,168.36,698.43,167.71,698.98,167.22z M703.3,176.89v26.35h-4.37v-26.35H703.3z"/>
	<path class="st1" d="M725.73,178.88c1.81,1.55,2.9,3.64,3.29,6.26h-4.18c-0.19-1.57-0.84-2.86-1.94-3.86
		c-1.1-1.01-2.58-1.51-4.44-1.51c-1.57,0-2.79,0.38-3.67,1.13c-0.88,0.75-1.32,1.77-1.32,3.05c0,0.96,0.3,1.74,0.89,2.33
		c0.59,0.59,1.33,1.04,2.21,1.34c0.88,0.3,2.09,0.63,3.62,0.98c1.95,0.45,3.53,0.9,4.73,1.37s2.22,1.21,3.07,2.23
		c0.85,1.02,1.27,2.4,1.27,4.13c0,2.14-0.81,3.89-2.42,5.23c-1.62,1.34-3.77,2.02-6.46,2.02c-3.14,0-5.7-0.75-7.68-2.26
		c-1.98-1.5-3.15-3.6-3.5-6.29h4.22c0.16,1.6,0.86,2.9,2.09,3.89c1.23,0.99,2.86,1.49,4.87,1.49c1.5,0,2.68-0.38,3.53-1.15
		c0.85-0.77,1.27-1.78,1.27-3.02c0-1.02-0.3-1.84-0.91-2.45c-0.61-0.61-1.36-1.07-2.26-1.39c-0.9-0.32-2.13-0.66-3.7-1.01
		c-1.95-0.45-3.51-0.9-4.68-1.34c-1.17-0.45-2.16-1.16-2.98-2.14c-0.82-0.98-1.22-2.3-1.22-3.96c0-2.21,0.82-3.99,2.45-5.35
		s3.86-2.04,6.67-2.04C721.54,176.55,723.93,177.33,725.73,178.88z"/>
	<path class="st1" d="M752.42,178.47c1.78,1.28,3.02,2.99,3.72,5.14v-6.72h4.37v26.35h-4.37v-6.72c-0.7,2.14-1.94,3.86-3.72,5.14
		c-1.78,1.28-3.94,1.92-6.5,1.92c-2.34,0-4.42-0.54-6.24-1.63c-1.82-1.09-3.26-2.65-4.3-4.68s-1.56-4.42-1.56-7.18
		s0.52-5.15,1.56-7.2s2.47-3.62,4.3-4.7c1.82-1.09,3.9-1.63,6.24-1.63C748.48,176.55,750.65,177.19,752.42,178.47z M740.71,183.01
		c-1.62,1.71-2.42,4.07-2.42,7.08s0.81,5.37,2.42,7.08s3.77,2.57,6.46,2.57c1.73,0,3.27-0.4,4.63-1.2c1.36-0.8,2.42-1.93,3.19-3.38
		c0.77-1.46,1.15-3.14,1.15-5.06s-0.38-3.62-1.15-5.09c-0.77-1.47-1.83-2.6-3.19-3.38c-1.36-0.78-2.9-1.18-4.63-1.18
		C744.48,180.44,742.33,181.3,740.71,183.01z"/>
	<path class="st1" d="M770.69,198.1v5.14h-5.28v-5.14H770.69z"/>
	<path class="st1" d="M796.99,179.41c1.89,1.97,2.83,4.81,2.83,8.52v15.31h-4.37v-14.93c0-2.62-0.67-4.64-2.02-6.05
		c-1.34-1.41-3.17-2.11-5.47-2.11c-2.4,0-4.32,0.78-5.76,2.33c-1.44,1.55-2.16,3.82-2.16,6.79v13.97h-4.37v-26.35h4.37v6.24
		c0.67-2.14,1.86-3.79,3.58-4.94c1.71-1.15,3.69-1.73,5.93-1.73C792.62,176.46,795.1,177.44,796.99,179.41z"/>
	<path class="st1" d="M830.59,191h-21.07c0.1,3.01,0.95,5.26,2.57,6.77c1.62,1.5,3.59,2.26,5.93,2.26c2.11,0,3.88-0.54,5.3-1.61
		c1.42-1.07,2.3-2.5,2.62-4.3h4.66c-0.32,1.82-1.03,3.46-2.14,4.9c-1.1,1.44-2.54,2.56-4.3,3.36c-1.76,0.8-3.74,1.2-5.95,1.2
		c-2.53,0-4.77-0.54-6.72-1.63c-1.95-1.09-3.48-2.65-4.58-4.68c-1.1-2.03-1.66-4.42-1.66-7.18s0.55-5.15,1.66-7.2
		c1.1-2.05,2.63-3.62,4.58-4.7c1.95-1.09,4.19-1.63,6.72-1.63c2.56,0,4.79,0.54,6.7,1.63c1.9,1.09,3.36,2.54,4.37,4.37
		c1.01,1.82,1.51,3.84,1.51,6.05C830.78,189.53,830.72,190.33,830.59,191z M825.41,183.99c-0.74-1.31-1.75-2.29-3.02-2.93
		c-1.28-0.64-2.67-0.96-4.18-0.96c-2.4,0-4.42,0.74-6.05,2.23c-1.63,1.49-2.51,3.67-2.64,6.55h16.85
		C826.46,186.94,826.14,185.3,825.41,183.99z"/>
	<path class="st1" d="M849.07,199.4v3.84h-3.26c-2.69,0-4.7-0.64-6.02-1.92c-1.33-1.28-1.99-3.42-1.99-6.43v-14.21h-3.94v-3.79h3.94
		v-6.58h4.42v6.58h6.82v3.79h-6.82v14.3c0,1.7,0.31,2.86,0.94,3.48s1.7,0.94,3.24,0.94H849.07z"/>
</g>
<g>
	<path class="st0" d="M313.35,56.85l27.09,76.1l27.47-76.1h12.47l-32.63,88.83h-14.49l-32.51-88.83H313.35z"/>
	<path class="st0" d="M392.1,51.11c1.43-1.3,3.32-1.95,5.67-1.95c2.35,0,4.24,0.65,5.67,1.95c1.43,1.3,2.14,3,2.14,5.1
		c0,2.1-0.71,3.8-2.14,5.1c-1.43,1.3-3.32,1.95-5.67,1.95c-2.35,0-4.24-0.65-5.67-1.95c-1.43-1.3-2.14-3-2.14-5.1
		C389.95,54.12,390.67,52.42,392.1,51.11z M403.44,76.5v69.17h-11.47V76.5H403.44z"/>
	<path class="st0" d="M484.96,113.55h-55.31c0.25,7.9,2.5,13.82,6.74,17.77c4.24,3.95,9.43,5.92,15.56,5.92
		c5.54,0,10.18-1.41,13.92-4.22c3.74-2.81,6.03-6.57,6.87-11.28h12.22c-0.84,4.79-2.71,9.07-5.61,12.85
		c-2.9,3.78-6.66,6.72-11.28,8.82c-4.62,2.1-9.83,3.15-15.62,3.15c-6.64,0-12.52-1.43-17.64-4.28c-5.12-2.85-9.14-6.95-12.03-12.29
		c-2.9-5.33-4.35-11.61-4.35-18.84c0-7.22,1.45-13.52,4.35-18.9c2.9-5.37,6.91-9.49,12.03-12.35c5.12-2.85,11-4.28,17.64-4.28
		c6.72,0,12.58,1.43,17.58,4.28c5,2.86,8.82,6.68,11.47,11.47s3.97,10.08,3.97,15.88C485.46,109.69,485.29,111.78,484.96,113.55z
		 M471.35,95.15c-1.93-3.44-4.58-6-7.94-7.69c-3.36-1.68-7.01-2.52-10.96-2.52c-6.3,0-11.59,1.95-15.88,5.86
		c-4.28,3.91-6.6,9.64-6.93,17.2h44.23C474.12,102.88,473.28,98.6,471.35,95.15z"/>
	<path class="st0" d="M533.47,135.6v10.08h-8.57c-7.06,0-12.33-1.68-15.81-5.04c-3.49-3.36-5.23-8.99-5.23-16.88v-37.3h-10.33V76.5
		h10.33V59.24h11.59V76.5h17.89v9.95h-17.89v37.55c0,4.45,0.82,7.5,2.46,9.14s4.47,2.46,8.5,2.46H533.47z"/>
	<path class="st0" d="M603.4,83.12c4.96,5.17,7.43,12.62,7.43,22.37v40.19h-11.47v-39.19c0-6.89-1.76-12.18-5.29-15.88
		c-3.53-3.7-8.32-5.54-14.36-5.54c-6.3,0-11.34,2.04-15.12,6.11c-3.78,4.08-5.67,10.02-5.67,17.83v36.67h-11.47V76.5h11.47v16.38
		c1.76-5.63,4.89-9.95,9.39-12.98c4.49-3.02,9.68-4.54,15.56-4.54C591.93,75.37,598.44,77.95,603.4,83.12z"/>
	<path class="st0" d="M673.9,80.66c4.66,3.36,7.92,7.86,9.76,13.48V76.5h11.47v69.17h-11.47v-17.64c-1.85,5.63-5.1,10.12-9.76,13.48
		c-4.66,3.36-10.35,5.04-17.07,5.04c-6.13,0-11.59-1.43-16.38-4.28c-4.79-2.85-8.55-6.95-11.28-12.29
		c-2.73-5.33-4.1-11.61-4.1-18.84c0-7.22,1.36-13.52,4.1-18.9c2.73-5.37,6.49-9.49,11.28-12.35c4.79-2.85,10.25-4.28,16.38-4.28
		C663.54,75.62,669.23,77.3,673.9,80.66z M643.15,92.57c-4.24,4.49-6.36,10.69-6.36,18.59c0,7.9,2.12,14.09,6.36,18.58
		c4.24,4.5,9.89,6.74,16.95,6.74c4.54,0,8.59-1.05,12.16-3.15c3.57-2.1,6.36-5.06,8.38-8.88c2.02-3.82,3.02-8.25,3.02-13.29
		s-1.01-9.49-3.02-13.36c-2.02-3.86-4.81-6.82-8.38-8.88c-3.57-2.06-7.62-3.09-12.16-3.09C653.04,85.83,647.39,88.08,643.15,92.57z"
		/>
	<path class="st0" d="M817.91,83.12c4.91,5.17,7.37,12.62,7.37,22.37v40.19h-11.47v-39.19c0-6.8-1.66-12.01-4.98-15.62
		c-3.32-3.61-7.88-5.42-13.67-5.42c-6.05,0-10.9,2-14.55,5.99c-3.65,3.99-5.48,9.85-5.48,17.58v36.67h-11.47v-39.19
		c0-6.8-1.68-12.01-5.04-15.62c-3.36-3.61-7.9-5.42-13.61-5.42c-6.13,0-11.02,2-14.68,5.99c-3.65,3.99-5.48,9.85-5.48,17.58v36.67
		H713.4V76.5h11.47v15.75c1.68-5.46,4.68-9.64,9.01-12.54c4.33-2.9,9.3-4.35,14.93-4.35c5.88,0,10.98,1.49,15.31,4.47
		c4.33,2.98,7.41,7.37,9.26,13.17c1.93-5.63,5.17-9.97,9.7-13.04c4.54-3.07,9.66-4.6,15.37-4.6C806.51,75.37,813,77.95,817.91,83.12
		z"/>
</g>
<g>
</g>
<g>
</g>
<g>
</g>
<g>
</g>
<g>
</g>
<g>
</g>
</svg>
