<svg width="177" height="26" viewBox="0 0 177 26" xmlns="http://www.w3.org/2000/svg"><title>Spread the word</title><path d="M8.576.598c1.4 0 2.326.756 2.778 2.267.046.076.07.17.07.277 0 .108-.05.21-.154.303-.103.094-.207.14-.312.14-.182 0-.29-.11-.325-.333-.082-.527-.305-.976-.668-1.345-.363-.37-.826-.553-1.39-.553-.56 0-.986.196-1.273.588-.287.393-.43.856-.43 1.39 0 .532.07 1.08.214 1.643.144.562.324 1.125.54 1.687.218.563.45 1.125.7 1.688.25.562.482 1.128.698 1.696.504 1.318.756 2.503.756 3.555 0 1.053-.29 2.015-.87 2.888-.744 1.143-1.916 1.714-3.515 1.714-1.225 0-2.284-.305-3.178-.914-.893-.61-1.34-1.482-1.34-2.62 0-1.136.34-2.117 1.02-2.943.246-.3.547-.607.905-.923.117-.1.228-.15.334-.15.234 0 .35.097.35.29 0 .1-.025.19-.078.273-.597.55-.993 1.008-1.186 1.37-.323.634-.484 1.243-.484 1.83 0 .585.103 1.054.308 1.405.205.352.477.645.817.88.668.468 1.537.702 2.606.702 1.07 0 1.934-.422 2.596-1.265.57-.72.853-1.6.853-2.64s-.487-2.692-1.46-4.954C6.487 6.28 6 4.71 6 3.828c0-.882.212-1.64.634-2.277C7.056.917 7.704.6 8.576.6zm5.37 10.74c.856-1.64 1.782-2.46 2.778-2.46.52 0 .896.153 1.125.46.227.308.34.764.34 1.367 0 1.108-.157 2.237-.473 3.388-.317 1.152-.79 2.13-1.42 2.936-.63.804-1.372 1.207-2.228 1.207-.33 0-.592-.07-.792-.21-.2-.14-.36-.38-.483-.713-.3 1.36-.582 2.712-.848 4.057-.267 1.345-.544 2.563-.83 3.652-.118.24-.285.36-.502.36-.18 0-.284-.12-.307-.36.386-1.517.697-2.888.93-4.113l.542-2.822c.126-.656.304-1.598.536-2.826.23-1.227.605-3.148 1.12-5.76v-.397c0-.117.055-.23.163-.338.108-.108.233-.163.377-.163s.25.056.316.167c.068.113.102.22.102.322 0 .103-.01.195-.027.277-.017.08-.038.162-.06.24l-.072.234c-.023.076-.038.143-.044.202l-.246 1.292zm-.773 4.667c0 .92.34 1.38 1.02 1.38.632 0 1.212-.393 1.74-1.178.673-1.008 1.12-2.35 1.336-4.025.063-.463.095-.91.095-1.336 0-.774-.19-1.16-.57-1.16-.382 0-.824.278-1.328.835-.703.78-1.26 1.703-1.675 2.77-.413 1.065-.62 1.97-.62 2.715zm6.152 1.96l.404-2.145c.21-1.095.354-1.873.43-2.333.076-.46.163-.967.26-1.52.096-.554.294-1.35.593-2.387-.012-.03-.018-.056-.018-.08v-.087c0-.28.11-.483.325-.606.065-.04.132-.062.202-.062.252 0 .378.182.378.545 0 .21-.085.59-.254 1.138-.17.548-.302 1.056-.396 1.525.082-.135.183-.305.303-.51.12-.205.31-.504.572-.896.26-.393.588-.766.984-1.12.394-.355.8-.532 1.212-.532.413 0 .728.11.945.334.082.075.123.17.123.29 0 .116-.053.22-.16.315-.104.094-.212.14-.324.14-.11 0-.22-.03-.325-.092-.104-.06-.222-.092-.35-.092-.13 0-.334.106-.616.317-1.12.815-2.042 2.43-2.768 4.843-.194.645-.31 1.09-.352 1.332-.04.243-.076.44-.105.593-.177.943-.447 1.415-.81 1.415-.17 0-.255-.108-.255-.325zm10.222-1.442c.205 0 .307.11.307.326 0 .25-.307.535-.922.85-.616.318-1.128.476-1.538.476-.41 0-.718-.068-.923-.202-.204-.135-.37-.323-.5-.563-.252-.468-.378-1.033-.378-1.695 0-1.172.176-2.277.527-3.314.35-1.036.82-1.896 1.405-2.578.586-.683 1.22-1.024 1.9-1.024.362 0 .648.15.856.452.21.302.313.658.313 1.068 0 .768-.2 1.418-.602 1.952-.4.533-.894.97-1.48 1.31-.586.34-1.26.66-2.022.966l-.035 1.292c0 1.008.305 1.512.914 1.512.328 0 .673-.096 1.033-.286l.778-.413c.158-.084.28-.127.37-.127zm.22-6.17c0-.468-.197-.703-.59-.703-.35 0-.764.317-1.24.95-.473.632-.866 1.467-1.176 2.504-.075.252-.12.443-.13.572.233-.13.474-.252.72-.37.246-.117.486-.24.72-.368.54-.3.957-.65 1.253-1.05.296-.402.444-.913.444-1.534zM32.147 18c-.684 0-1.027-.43-1.027-1.292 0-.86.32-1.917.963-3.168.64-1.25 1.396-2.332 2.263-3.244.867-.91 1.574-1.366 2.122-1.366.548 0 .86.24.936.72.024.147.04.302.053.466.053-.035.117-.053.193-.053.276 0 .413.132.413.396v.07c0 .017-.073.28-.22.79-.146.51-.313 1.36-.5 2.55-.188 1.19-.28 2.205-.28 3.05.05.034.113.074.183.118.07.044.158.11.264.202.105.09.158.197.158.32 0 .124-.038.233-.114.33-.076.097-.185.145-.325.145-.29 0-.548-.146-.78-.44-.23-.292-.346-.61-.346-.95 0-.73.2-1.99.597-3.778-.497 1.043-1.14 2.048-1.932 3.015-.79.967-1.338 1.56-1.64 1.784-.3.223-.628.334-.98.334zm-.13-1.257c0 .217.09.325.272.325.128 0 .236-.044.324-.13 1.213-1.044 2.3-2.49 3.26-4.334.546-1.055.834-1.662.867-1.82.033-.158.05-.293.05-.404 0-.11-.03-.217-.09-.317-.057-.1-.14-.15-.245-.15-.105 0-.26.057-.466.168-.452.247-1.007.772-1.666 1.574-.66.803-1.21 1.676-1.648 2.62-.44.943-.66 1.766-.66 2.47zm12.84-7.022l.862-3.78c.057-.268.2-.964.425-2.086.226-1.122.39-1.903.497-2.342l.035-.22c0-.152.05-.283.154-.39.103-.11.21-.164.32-.164.26 0 .388.138.388.413v.08c0 .288-.206 1.38-.62 3.28-.413 1.897-.68 3.233-.804 4.007-.123.773-.356 1.854-.698 3.243-.343 1.388-.56 2.326-.646 2.812-.088.487-.173.898-.255 1.235-.082.337-.123.672-.123 1.006 0 .334.052.67.158 1.01-.018.142-.082.26-.194.357-.11.097-.213.145-.307.145-.154 0-.285-.18-.397-.54-.11-.36-.167-.662-.167-.906s.035-.53.106-.858c-.24.727-.55 1.265-.932 1.613-.38.35-.88.523-1.498.523-.62 0-1.058-.253-1.32-.76-.26-.507-.39-1.003-.39-1.49 0-1.793.34-3.31 1.02-4.553.316-.574.596-1 .84-1.274.242-.274.554-.538.935-.79.38-.252.85-.378 1.406-.378.557 0 .958.27 1.204.81zm-.47 1.912c.027-.132.04-.348.04-.65 0-.302-.088-.596-.264-.883-.176-.288-.425-.432-.747-.432-.574 0-1.1.362-1.578 1.085-.477.724-.858 1.568-1.142 2.532-.284.964-.426 1.777-.426 2.44 0 .66.187 1.132.562 1.414.123.092.287.14.492.14.416 0 .862-.355 1.336-1.064.475-.71.83-1.38 1.064-2.008.234-.63.397-1.184.487-1.662.092-.477.15-.782.177-.914zm12.292-1.91c-.5 0-.93.028-1.293.087-.24-.025-.36-.127-.36-.31 0-.104.043-.213.13-.324.09-.112.206-.176.353-.194l1.3.036c.024-.123.05-.27.075-.444.027-.173.073-.425.14-.756.068-.33.162-.63.282-.9.12-.27.277-.405.47-.405.194 0 .29.108.29.325v.114c-.17.727-.313 1.41-.43 2.048h1.292c.456 0 .736.035.838.105.103.07.154.16.154.264 0 .204-.126.34-.378.403-.13.036-.388.053-.778.053s-.813-.017-1.27-.053c-.11.586-.36 1.682-.743 3.288-.383 1.606-.575 2.642-.575 3.107 0 .466.052.772.158.92.076.093.205.14.387.14.18 0 .337-.053.465-.16.13-.104.247-.22.352-.346.106-.125.21-.24.312-.346.103-.105.215-.158.338-.158.24 0 .36.12.36.36 0 .123-.12.327-.364.61-.243.285-.467.503-.672.656-.205.152-.504.228-.897.228-.392 0-.662-.067-.808-.202-.306-.27-.458-.7-.458-1.292 0-.305.035-.665.105-1.08l.167-1.02c.11-.504.21-.945.3-1.323.087-.378.163-.71.227-.998l.256-1.12c.106-.46.197-.898.273-1.314zm4.99 8.006c0 .275-.222.413-.667.413-.205 0-.308-.1-.308-.298 0-.2.586-2.988 1.758-8.367.873-4.12 1.427-6.9 1.66-8.34l.072-.24c.052-.174.158-.262.316-.262.3 0 .49.15.572.448-.047.224-.11.534-.19.933-.078.398-.17.852-.276 1.362l-.342 1.652c-.123.592-.25 1.193-.378 1.802-.13.608-.325 1.54-.59 2.794-.263 1.254-.488 2.306-.676 3.155C63.845 10.26 65.002 9 66.092 9c.445 0 .776.174.993.523.217.35.325.734.325 1.156 0 .42-.076 1.01-.228 1.765l-.3 1.512c-.327 1.658-.49 2.648-.49 2.97l.025.686c0 .153-.05.276-.154.37-.102.093-.24.14-.41.14-.168 0-.293-.06-.372-.18-.078-.12-.118-.236-.118-.347 0-.112.01-.21.027-.3l1.045-5.844c.035-.187.052-.404.052-.65 0-.604-.167-.906-.5-.906-.633 0-1.495.947-2.585 2.84-.615 1.072-.993 1.814-1.133 2.227-.142.413-.28.888-.415 1.424-.134.536-.202.88-.202 1.033l.018.308zm11.277-1.205c.205 0 .308.11.308.326 0 .25-.308.535-.923.85-.615.318-1.128.476-1.538.476-.41 0-.718-.068-.923-.202-.204-.135-.37-.323-.5-.563-.252-.468-.378-1.033-.378-1.695 0-1.172.176-2.277.528-3.314.35-1.036.82-1.896 1.406-2.578.586-.683 1.22-1.024 1.898-1.024.364 0 .65.15.857.452.21.302.313.658.313 1.068 0 .768-.2 1.418-.602 1.952-.4.533-.894.97-1.48 1.31-.586.34-1.26.66-2.02.966l-.036 1.292c0 1.008.304 1.512.914 1.512.328 0 .672-.096 1.032-.286l.778-.413c.158-.084.28-.127.37-.127zm.22-6.17c0-.468-.196-.703-.59-.703-.35 0-.764.317-1.238.95-.476.632-.868 1.467-1.18 2.504-.075.252-.12.443-.13.572.234-.13.474-.252.72-.37.246-.117.486-.24.72-.368.54-.3.957-.65 1.253-1.05.296-.402.444-.913.444-1.534zm10.89 7.7c-.252 0-.378-.246-.378-.74-.2-.836-.416-2.155-.647-3.954-.232-1.8-.388-2.882-.47-3.248-.083-.366-.124-.592-.124-.677 0-.085.048-.182.144-.29.097-.108.198-.163.304-.163.105 0 .203.044.294.132.09.088.158.236.202.444.044.208.12.662.224 1.362.106.7.25 1.73.435 3.09.185 1.36.304 2.09.356 2.188.2-.562.418-1.15.66-1.766.97-2.532 1.545-4.257 1.72-5.177.042-.23.18-.343.414-.343.135 0 .23.035.286.106.056.07.092.172.11.307.275 2.795.597 5.177.967 7.146 1.787-2.87 2.68-5.16 2.68-6.872 0-.856-.275-1.577-.826-2.162-.08-.088-.19-.172-.328-.25-.138-.08-.274-.16-.41-.243-.333-.193-.5-.366-.5-.518 0-.117.05-.224.15-.32.1-.098.22-.146.36-.146.14 0 .427.137.86.412.435.275.792.677 1.073 1.204.28.528.422 1.154.422 1.88 0 1.232-.245 2.44-.734 3.63-.49 1.19-1.11 2.348-1.86 3.473-.092.14-.186.3-.28.482-.37.72-.71 1.08-1.02 1.08-.275 0-.413-.24-.413-.72 0-.088.008-.175.022-.263.015-.09.002-.253-.04-.494-.41-2.197-.68-3.852-.808-4.965-.175.4-.53 1.323-1.063 2.774-.532 1.45-.99 2.573-1.37 3.37-.112.153-.25.23-.413.23zm12.656-9.14c1.107 0 1.66.837 1.66 2.513 0 1.306-.36 2.71-1.08 4.21-.486 1.008-1.072 1.734-1.758 2.18-.35.228-.715.342-1.09.342-.662 0-1.136-.263-1.424-.79-.286-.528-.43-1.097-.43-1.706 0-1.09.184-2.147.55-3.173.366-1.026.864-1.88 1.494-2.558.63-.68 1.323-1.02 2.08-1.02zm-2.356 2.908c-.632 1.267-.95 2.503-.95 3.71 0 .838.233 1.4.696 1.688.14.088.3.132.483.132.375 0 .794-.326 1.257-.976.463-.65.852-1.452 1.17-2.404.315-.952.473-1.77.473-2.452 0-.683-.04-1.115-.118-1.296-.08-.182-.17-.308-.273-.378-.102-.07-.272-.106-.51-.106-.237 0-.496.094-.777.282-.545.35-1.03.952-1.45 1.8zm5.274 6.145l.405-2.145c.21-1.095.355-1.873.43-2.333.077-.46.163-.967.26-1.52.097-.554.295-1.35.593-2.387-.01-.03-.017-.056-.017-.08v-.087c0-.28.11-.483.326-.606.064-.04.132-.062.202-.062.252 0 .378.182.378.545 0 .21-.085.59-.255 1.138-.17.548-.3 1.056-.394 1.525.082-.135.183-.305.303-.51.12-.205.31-.504.57-.896.26-.393.59-.766.985-1.12.395-.355.8-.532 1.212-.532.414 0 .728.11.945.334.082.075.123.17.123.29 0 .116-.052.22-.158.315-.105.094-.214.14-.325.14-.11 0-.22-.03-.325-.092-.106-.06-.223-.092-.352-.092-.13 0-.334.106-.615.317-1.12.815-2.042 2.43-2.77 4.843-.192.645-.31 1.09-.35 1.332-.04.243-.076.44-.106.593-.175.943-.445 1.415-.808 1.415-.17 0-.255-.108-.255-.325zm11.61-8.244l.863-3.78c.058-.268.2-.964.426-2.086.224-1.122.39-1.903.495-2.342l.036-.22c0-.152.052-.283.154-.39.103-.11.21-.164.32-.164.26 0 .388.138.388.413v.08c0 .288-.207 1.38-.62 3.28-.413 1.897-.68 3.233-.804 4.007-.123.773-.356 1.854-.7 3.243-.34 1.388-.557 2.326-.645 2.812-.088.487-.173.898-.255 1.235-.082.337-.123.672-.123 1.006 0 .334.053.67.16 1.01-.02.142-.083.26-.195.357-.11.097-.214.145-.307.145-.153 0-.285-.18-.396-.54-.11-.36-.167-.662-.167-.906s.035-.53.106-.858c-.24.727-.55 1.265-.932 1.613-.38.35-.88.523-1.5.523-.617 0-1.056-.253-1.317-.76-.26-.507-.39-1.003-.39-1.49 0-1.793.34-3.31 1.018-4.553.317-.574.597-1 .84-1.274s.555-.538.936-.79c.382-.252.85-.378 1.407-.378s.958.27 1.204.81zm-.47 1.912c.027-.132.04-.348.04-.65 0-.302-.087-.596-.263-.883-.176-.288-.425-.432-.747-.432-.574 0-1.1.362-1.578 1.085-.477.724-.858 1.568-1.142 2.532-.285.964-.427 1.777-.427 2.44 0 .66.188 1.132.563 1.414.123.092.287.14.492.14.416 0 .86-.355 1.336-1.064.475-.71.83-1.38 1.063-2.008.235-.63.397-1.184.488-1.662.09-.477.15-.782.176-.914zM121.99 18c-.685 0-1.028-.43-1.028-1.292 0-.86.32-1.917.962-3.168.642-1.25 1.396-2.332 2.263-3.244.868-.91 1.575-1.366 2.123-1.366.548 0 .86.24.936.72.024.147.04.302.053.466.052-.035.116-.053.192-.053.276 0 .413.132.413.396v.07c0 .017-.073.28-.22.79-.146.51-.313 1.36-.5 2.55-.188 1.19-.282 2.205-.282 3.05l.185.118c.07.044.158.11.264.202.105.09.158.197.158.32 0 .124-.038.233-.114.33-.077.097-.185.145-.326.145-.287 0-.546-.146-.778-.44-.23-.292-.347-.61-.347-.95 0-.73.2-1.99.598-3.778-.498 1.043-1.143 2.048-1.934 3.015-.792.967-1.338 1.56-1.64 1.784-.302.223-.628.334-.98.334zm-.132-1.257c0 .217.09.325.273.325.13 0 .238-.044.326-.13 1.213-1.044 2.3-2.49 3.26-4.334.546-1.055.834-1.662.867-1.82.032-.158.048-.293.048-.404 0-.11-.028-.217-.087-.317-.06-.1-.14-.15-.246-.15-.106 0-.26.057-.466.168-.45.247-1.005.772-1.664 1.574-.66.803-1.21 1.676-1.648 2.62-.44.943-.66 1.766-.66 2.47zm11.558-15.627l-.035.123c-.31 2.038-.645 3.872-1.005 5.5-.36 1.63-.68 3.11-.954 4.44.37-.662.68-1.13.933-1.407.503-.55.993-.826 1.467-.826.475 0 .838.182 1.09.545.252.363.378.744.378 1.143 0 .867-.136 1.897-.41 3.09-.27 1.192-.645 2.18-1.12 2.965-.59.99-1.268 1.486-2.03 1.486-.55 0-.96-.246-1.23-.738-.27-.493-.404-1.06-.404-1.706 0-.644.045-1.265.136-1.863.09-.6.19-1.23.294-1.9.106-.667.207-1.278.304-1.832.096-.554.19-1.065.276-1.534.088-.468.178-.924.27-1.366.09-.443.252-1.23.486-2.364.235-1.134.478-2.422.73-3.863.1-.193.22-.29.36-.29.31 0 .466.133.466.396zm-2.408 14.616c0 1.02.24 1.53.72 1.53.44 0 .874-.358 1.3-1.073.58-.967.986-2.166 1.214-3.595.065-.405.097-.834.097-1.288 0-.454-.042-.814-.124-1.08-.082-.268-.252-.4-.51-.4-.38 0-.882.447-1.503 1.344-.62.897-.975 1.78-1.063 2.65-.088.87-.132 1.508-.132 1.912zm9.483-6.82c1.11 0 1.662.838 1.662 2.514 0 1.306-.36 2.71-1.08 4.21-.487 1.008-1.073 1.734-1.76 2.18-.35.228-.713.342-1.088.342-.662 0-1.137-.263-1.424-.79-.287-.528-.43-1.097-.43-1.706 0-1.09.182-2.147.548-3.173.367-1.026.865-1.88 1.495-2.558.63-.68 1.322-1.02 2.078-1.02zm-2.354 2.91c-.633 1.265-.95 2.5-.95 3.708 0 .838.232 1.4.695 1.688.14.088.303.132.484.132.375 0 .794-.326 1.257-.976.464-.65.854-1.452 1.17-2.404.316-.952.475-1.77.475-2.452 0-.683-.04-1.115-.12-1.296-.078-.182-.17-.308-.27-.378-.104-.07-.274-.106-.51-.106-.24 0-.498.094-.78.282-.544.35-1.027.952-1.45 1.8zm9.808 6.61c-.357 0-.536-.482-.536-1.443 0-.622.06-1.258.18-1.908.12-.65.245-1.286.374-1.907-.217.387-.422.783-.615 1.19-.194.408-.364.736-.51.985-.147.25-.264.46-.352.63-.756 1.44-1.457 2.16-2.105 2.16-.647 0-.97-.64-.97-1.924 0-1.647.26-3.513.78-5.6l.274-1.09c.11-.397.3-.596.562-.596.153 0 .255.102.308.307-.018.188-.064.36-.14.52-.077.157-.132.333-.168.526-.515 2.602-.773 4.377-.773 5.326l-.018.843c0 .48.08.72.238.72.457 0 1.233-1.077 2.33-3.234.17-.33.377-.742.623-1.24s.44-.877.58-1.138c.14-.26.266-.51.378-.75.463-1.015.86-1.522 1.195-1.522.204 0 .307.113.307.338 0 .226-.115.597-.343 1.112-.23.516-.416 1.043-.563 1.582-.42 1.506-.68 3.08-.78 4.72v.097c0 .174.036.305.11.39.072.085.127.146.162.184.035.038.052.118.052.238s-.068.23-.206.33c-.138.1-.262.15-.374.15zm4.782-8.71c-.498 0-.93.028-1.292.087-.24-.025-.36-.127-.36-.31 0-.104.043-.213.13-.324.09-.112.206-.176.353-.194l1.3.036c.024-.123.05-.27.075-.444.026-.173.073-.425.14-.756.068-.33.162-.63.282-.9.12-.27.277-.405.47-.405.194 0 .29.108.29.325v.114c-.17.727-.313 1.41-.43 2.048h1.292c.457 0 .736.035.84.105.1.07.153.16.153.264 0 .204-.127.34-.38.403-.128.036-.387.053-.777.053s-.813-.017-1.27-.053c-.11.586-.36 1.682-.743 3.288-.383 1.606-.575 2.642-.575 3.107 0 .466.052.772.158.92.076.093.205.14.387.14.18 0 .336-.053.465-.16.13-.104.246-.22.352-.346.105-.125.21-.24.312-.346.1-.105.214-.158.337-.158.24 0 .36.12.36.36 0 .123-.12.327-.364.61-.243.285-.467.503-.672.656-.205.152-.503.228-.896.228s-.662-.067-.81-.202c-.303-.27-.456-.7-.456-1.292 0-.305.036-.665.106-1.08l.167-1.02c.112-.504.212-.945.3-1.323s.164-.71.228-.998l.255-1.12c.106-.46.196-.898.273-1.314zm16.022 8.71c-.357 0-.536-.482-.536-1.443 0-.622.06-1.258.18-1.908.12-.65.245-1.286.374-1.907-.217.387-.422.783-.616 1.19-.193.408-.363.736-.51.985-.146.25-.263.46-.35.63-.757 1.44-1.458 2.16-2.106 2.16-.647 0-.97-.64-.97-1.924 0-1.647.26-3.513.78-5.6l.274-1.09c.11-.397.298-.596.562-.596.152 0 .255.102.308.307-.018.188-.065.36-.14.52-.077.157-.133.333-.168.526-.516 2.602-.773 4.377-.773 5.326l-.018.843c0 .48.078.72.236.72.457 0 1.234-1.077 2.33-3.234.17-.33.377-.742.623-1.24s.44-.877.58-1.138c.14-.26.266-.51.377-.75.463-1.015.862-1.522 1.196-1.522.205 0 .307.113.307.338 0 .226-.114.597-.342 1.112-.23.516-.416 1.043-.563 1.582-.422 1.506-.682 3.08-.782 4.72v.097c0 .174.037.305.11.39.073.085.127.146.162.184.036.038.053.118.053.238s-.07.23-.206.33c-.138.1-.263.15-.374.15zm5.792-8.834c-.586 0-.88.34-.88 1.02 0 .45.107.916.318 1.397.21.48.39.864.536 1.15.568 1.132.852 1.998.852 2.598 0 .6-.18 1.112-.545 1.534-.362.422-.886.674-1.572.756h-.114c-.662 0-1.143-.407-1.442-1.222-.01-.028-.017-.055-.017-.078v-.088c0-.123.038-.224.114-.303.075-.078.157-.127.245-.144h.097c.117 0 .212.047.285.14.074.094.143.198.207.312.064.115.135.22.21.312.077.094.21.14.396.14.4 0 .717-.123.954-.372.237-.25.356-.526.356-.83 0-.306-.044-.59-.132-.854-.146-.45-.398-1.013-.756-1.687-.597-1.107-.896-1.97-.896-2.584 0-.615.155-1.12.466-1.512.31-.39.75-.588 1.318-.588.352 0 .653.074.905.22.475.276.712.585.712.927 0 .342-.143.514-.43.514-.106 0-.192-.04-.26-.12-.067-.078-.14-.165-.215-.258-.205-.252-.442-.378-.712-.378z" fill="#243238" fill-rule="evenodd"/></svg>