<svg width="106" height="17" viewBox="0 0 106 17" xmlns="http://www.w3.org/2000/svg"><title>Arrow</title><path d="M96.61 8.187c-2.41 1.637-3.574 3.146-12.33 5.005-3.423.726-9.374 2.292-29.69 1.58-20.318-.713-30.814-3.64-35.444-4.88C13.283 8.322 7.94 5.905 4.44 2.984c-6.936-5.79-4.49-1.844-1.11.896 7.59 6.15 25.002 10.408 45.148 11.757 26.405 1.77 40.724-1.085 47.957-4.662 1.11-.55 2.29-1.558 2.237-.02-.067.697-1.423 5.327-.228 5.272 1.262-.06 2.633-4.395 4.19-7.31 1.43-2.676 3.062-4.464 2.756-5.037-.316-.59-3.208.944-6.215 1.132-3.077.192-6.217-.414-6.693 0-1.805 1.573 3.953 1.508 4.127 3.175z" fill="#90CAF9" fill-rule="evenodd"/></svg>