<svg xmlns="http://www.w3.org/2000/svg" width="94" height="42" viewBox="0 0 94 42"><path stroke="#fff" stroke-width="3" stroke-linejoin="round" stroke-miterlimit="10" d="M34.512 26.934c.695-.358.811-1.298.23-1.822l-14.485-13.061 4.191-2.194c2.217-1.161 1.031-.989 30.93 6.026.471.111.967.053 1.4-.164 8.35-4.195 16.639-8.689 25.059-12.533 5.031-2.038 11.206-1.798 10.013 1.753-.883 2.629-5.205 5.776-7.795 7.589-9.908 5.972-43.211 22.123-54.131 26.218-4.222 1.583-17.926 1.682-19.903.811 0-.002 24.477-12.616 24.491-12.623zm-28.567 3.026c-1.098-.164-2.204.235-2.947 1.06l-.998 1.11 8.021 7.425 11.469-5.911c-7.198-1.968-12.981-3.301-15.545-3.684z" fill="none"/></svg>